<svg width="103" height="104" viewBox="0 0 103 104" fill="none" xmlns="http://www.w3.org/2000/svg">
<path d="M51.287 103.283C79.5974 103.283 102.548 80.3327 102.548 52.0223C102.548 23.7119 79.5974 0.761719 51.287 0.761719C22.9765 0.761719 0.0263672 23.7119 0.0263672 52.0223C0.0263672 80.3327 22.9765 103.283 51.287 103.283Z" fill="white"/>
<path d="M69.0511 35.7025C65.7276 34.1771 62.2202 33.0894 58.6168 32.4667C58.584 32.4604 58.5501 32.4647 58.5198 32.4789C58.4896 32.4931 58.4647 32.5165 58.4486 32.5458C57.9701 33.413 57.5357 34.3039 57.147 35.2149C53.263 34.625 49.3122 34.625 45.4282 35.2149C45.0378 34.3016 44.5972 33.4105 44.1086 32.5458C44.0919 32.5171 44.0668 32.4942 44.0368 32.4801C44.0068 32.466 43.9732 32.4613 43.9404 32.4667C40.3381 33.0884 36.8319 34.1761 33.5101 35.7025C33.4815 35.7145 33.4574 35.7352 33.441 35.7616C26.7962 45.6903 24.976 55.3747 25.8691 64.937C25.8716 64.9605 25.8789 64.9833 25.8904 65.0039C25.9019 65.0246 25.9175 65.0427 25.9362 65.0572C29.8056 67.9235 34.1339 70.1115 38.7363 71.5278C38.7688 71.5375 38.8034 71.5371 38.8356 71.5265C38.8679 71.516 38.8961 71.4958 38.9165 71.4688C39.9047 70.1234 40.7804 68.6989 41.5346 67.2097C41.5449 67.1893 41.5507 67.1669 41.5518 67.1441C41.5528 67.1212 41.549 67.0984 41.5406 67.0771C41.5321 67.0558 41.5193 67.0366 41.5029 67.0206C41.4866 67.0046 41.467 66.9923 41.4455 66.9845C40.0644 66.457 38.7274 65.8209 37.4468 65.0822C37.4235 65.0685 37.404 65.0494 37.3899 65.0264C37.3759 65.0034 37.3677 64.9772 37.3661 64.9503C37.3645 64.9234 37.3696 64.8965 37.3809 64.872C37.3921 64.8475 37.4093 64.8262 37.4307 64.8099C37.6991 64.6097 37.9684 64.3994 38.2247 64.1872C38.2474 64.1685 38.275 64.1565 38.3041 64.1526C38.3333 64.1487 38.363 64.1531 38.3899 64.1651C46.7788 67.9957 55.8615 67.9957 64.1513 64.1651C64.1784 64.1522 64.2085 64.1472 64.2383 64.1507C64.2681 64.1543 64.2963 64.1662 64.3195 64.1852C64.5758 64.3964 64.8451 64.6087 65.1205 64.8099C65.142 64.826 65.1593 64.8472 65.1708 64.8716C65.1822 64.896 65.1875 64.9229 65.1861 64.9498C65.1847 64.9767 65.1767 65.0029 65.1628 65.026C65.1489 65.049 65.1296 65.0684 65.1065 65.0822C63.8275 65.828 62.4879 66.4644 61.1017 66.9845C61.0801 66.9926 61.0605 67.0052 61.0441 67.0215C61.0277 67.0378 61.015 67.0574 61.0068 67.079C60.9986 67.1006 60.995 67.1236 60.9963 67.1467C60.9977 67.1698 61.0039 67.1923 61.0146 67.2127C61.7814 68.6938 62.6558 70.1166 63.6307 71.4698C63.6505 71.4976 63.6786 71.5185 63.7109 71.5295C63.7433 71.5405 63.7783 71.5409 63.8109 71.5308C68.4196 70.1187 72.7535 67.9304 76.6261 65.0602C76.645 65.0464 76.6608 65.0288 76.6724 65.0084C76.684 64.988 76.691 64.9654 76.6931 64.942C77.7624 53.885 74.903 44.2796 69.1142 35.7656C69.1012 35.7378 69.0789 35.7154 69.0511 35.7025ZM42.7861 59.1152C40.2601 59.1152 38.1806 56.7964 38.1806 53.9491C38.1806 51.1017 40.221 48.7829 42.7861 48.7829C45.3721 48.7829 47.4336 51.1217 47.3915 53.9491C47.3935 56.7964 45.3521 59.1152 42.7861 59.1152ZM59.8192 59.1152C57.2932 59.1152 55.2138 56.7964 55.2138 53.9491C55.2138 51.1017 57.2542 48.7829 59.8192 48.7829C62.4053 48.7829 64.4667 51.1217 64.4246 53.9491C64.4256 56.7964 62.4053 59.1152 59.8192 59.1152Z" fill="#4933CC"/>
</svg>
