<svg width="101" height="101" viewBox="0 0 101 101" fill="none" xmlns="http://www.w3.org/2000/svg">
<path d="M50.2392 59.2153C55.0662 59.2153 59.0173 55.2837 59.0173 50.4372C59.0173 48.5298 58.3944 46.7586 57.3629 45.3183C55.7669 43.119 53.1782 41.6592 50.2587 41.6592C47.3391 41.6592 44.7505 43.0995 43.1545 45.3183C42.1229 46.7586 41.5001 48.5298 41.5001 50.4372C41.4806 55.2837 45.4122 59.2153 50.2392 59.2153Z" fill="white"/>
<path d="M69.3915 39.7323V32.3751V31.2852H68.3016L60.9443 31.3046L60.9833 39.7518L69.3915 39.7323Z" fill="white"/>
<path d="M63.8639 50.4568C63.8639 57.9697 57.7523 64.0813 50.2394 64.0813C42.7264 64.0813 36.6149 57.9697 36.6149 50.4568C36.6149 48.6467 36.9847 46.9144 37.627 45.3379H30.1919V65.7357C30.1919 68.3633 32.3329 70.5043 34.9605 70.5043H65.5183C68.1458 70.5043 70.2868 68.3633 70.2868 65.7357V45.3379H62.8518C63.5135 46.9144 63.8639 48.6467 63.8639 50.4568Z" fill="white"/>
<path d="M50.2393 0.629883C22.7178 0.629883 0.412598 22.9351 0.412598 50.4566C0.412598 77.9781 22.7178 100.283 50.2393 100.283C77.7608 100.283 100.066 77.9781 100.066 50.4566C100.066 22.9351 77.7608 0.629883 50.2393 0.629883ZM75.1527 45.3377V65.7355C75.1527 71.0491 70.8318 75.37 65.5182 75.37H34.9604C29.6469 75.37 25.326 71.0491 25.326 65.7355V45.3377V35.1582C25.326 29.8447 29.6469 25.5238 34.9604 25.5238H65.5182C70.8318 25.5238 75.1527 29.8447 75.1527 35.1582V45.3377Z" fill="white"/>
</svg>
