<svg width="104" height="104" viewBox="0 0 104 104" fill="none" xmlns="http://www.w3.org/2000/svg">
<path d="M45.251 62.3215L62.1481 52.401L45.251 42.4805V62.3215Z" fill="white"/>
<path d="M52.1269 0.761719C23.6154 0.761719 0.507812 23.8693 0.507812 52.3808C0.507812 80.8922 23.6154 104 52.1269 104C80.6383 104 103.746 80.8922 103.746 52.3808C103.746 23.8693 80.6383 0.761719 52.1269 0.761719ZM77.9364 61.6157C77.9364 70.5079 69.0442 70.5079 69.0442 70.5079H35.2095C26.3173 70.5079 26.3173 61.6157 26.3173 61.6157V43.166C26.3173 34.2738 35.2095 34.2738 35.2095 34.2738H69.0442C77.9364 34.2738 77.9364 43.166 77.9364 43.166V61.6157Z" fill="white"/>
</svg>
